<svg xmlns="http://www.w3.org/2000/svg" viewBox="0 0 300 300"><path fill="#ffa700" d="M0 0h300v300H0z"/><path d="M83.44 71.93a55.31 55.31 0 0 1 21.25-4.59q8.5 0 17.51 6.29 4.93 3.4 11.05 13.26 4.08 6.8 10.37 24.65l20.74 58.82q7.14 19.72 14.54 31.36t13.52 17.51a36.33 36.33 0 0 0 12.75 8.24 34 34 0 0 0 11 2.38 39.77 39.77 0 0 0 7.73-.68l.17 1.7a50.41 50.41 0 0 1-16 2.72 34.12 34.12 0 0 1-15.64-4 54.43 54.43 0 0 1-14.62-11.13q-14.62-14.79-24.82-45L146.34 154H99.76L88 184.3a10.51 10.51 0 0 0-.85 4.08 7.2 7.2 0 0 0 1.85 4.33q1.78 2.3 5.52 2.29h1.36v1.7h-34.2V195h1.53a14.81 14.81 0 0 0 8-2.46 18.5 18.5 0 0 0 6.46-7.39l42.16-101Q110.64 71.08 97 71.08a38.2 38.2 0 0 0-13.09 2.55zm18.19 77h43l-13.43-39.61a152.52 152.52 0 0 0-7.14-17.85z" fill="#fff"/></svg>